<?xml version="1.0" encoding="UTF-8"?><svg xmlns="http://www.w3.org/2000/svg" width="1731.42" height="1376.21" viewBox="0 0 1731.42 1376.21"><g id="a"><text transform="translate(1.58 1332.52)" fill="#fff" font-family="Broadway, Broadway" font-size="176.13"><tspan x="0" y="0" letter-spacing="-.06em">W</tspan><tspan x="168.22" y="0">a</tspan><tspan x="292.23" y="0" letter-spacing="0em">rr</tspan><tspan x="478.69" y="0" letter-spacing="-.03em">r</tspan><tspan x="566.06" y="0" letter-spacing="0em">en D</tspan><tspan x="980.59" y="0" letter-spacing="-.03em">a</tspan><tspan x="1099.71" y="0">vidson</tspan></text></g><g id="b"><polygon points="406.8 127.76 301.31 219.4 216.68 21.51 364.98 21.51 406.8 127.76" fill="#ec2626"/><polygon points="1068.87 356.65 1068.87 685.14 991.91 869.09 785.44 366.04 588.35 869.09 331.57 268.62 435.27 178.55 577.08 538.73 789.19 0 995.67 538.73 1068.87 356.65" fill="#fff"/><path d="m956.25,91.98v131.4s273.43-42.55,366.03,201.47c0,0,135.15,395.44-268.42,498.68l-.94,137.03s393.25-7.51,427.04-484.29c0,0,10.48-537.33-523.71-484.29Z" fill="#fff"/><polygon points="737.88 841.57 865.53 841.57 865.53 922.91 1004.43 922.91 1004.43 1060.56 737.88 1060.56 737.88 841.57" fill="#ec2626"/></g></svg>